<svg preserveAspectRatio="none" width="100%" height="100%" overflow="visible" style="display: block;" viewBox="0 0 22.0167 25.9883" fill="none" xmlns="http://www.w3.org/2000/svg">
<path id="Vector" d="M21.5951 6.68671C20.823 5.193 19.0721 4.45781 16.821 4.45781C16.4404 4.45781 16.0489 4.48115 15.6465 4.52783C14.5264 1.76212 12.8625 0 11.0029 0C9.14331 0 7.47945 1.76212 6.35933 4.52783C5.95696 4.48115 5.56546 4.45781 5.18484 4.45781C2.93372 4.45781 1.18286 5.193 0.410738 6.68671C-0.459257 8.36715 0.0953648 10.6777 1.67223 13C0.10624 15.3106 -0.448382 17.6212 0.421613 19.3016C1.19373 20.7953 2.9446 21.5305 5.19571 21.5305C5.57633 21.5305 5.96783 21.5072 6.3702 21.4605C7.49032 24.2262 9.15419 25.9883 11.0138 25.9883C12.8734 25.9883 14.5373 24.2262 15.6574 21.4605C16.0598 21.5072 16.4513 21.5305 16.8319 21.5305C19.083 21.5305 20.8339 20.7953 21.606 19.3016C22.476 17.6212 21.9214 15.3106 20.3445 12.9883C21.9214 10.6661 22.476 8.36714 21.606 6.67504L21.5951 6.68671ZM16.8319 6.20826C18.5175 6.20826 19.7355 6.69838 20.1705 7.5386C20.6381 8.43716 20.301 9.95422 19.2679 11.5996C18.5828 10.8061 17.7889 10.0242 16.8863 9.27738C16.734 8.1921 16.5165 7.17684 16.2446 6.2316C16.4404 6.21993 16.647 6.20826 16.8319 6.20826ZM13.1997 17.2244C12.4819 17.6562 11.7424 18.0296 11.0138 18.3564C10.2852 18.0296 9.54569 17.6445 8.82794 17.2244C8.06669 16.7693 7.34895 16.2675 6.66383 15.7424C6.56595 14.8671 6.51158 13.9569 6.51158 13C6.51158 12.0431 6.56595 11.1329 6.66383 10.2576C7.3272 9.74416 8.04494 9.24237 8.82794 8.77558C9.54569 8.34381 10.2852 7.97038 11.0138 7.64363C11.7424 7.97038 12.4819 8.35548 13.1997 8.77558C13.9827 9.24237 14.7004 9.74416 15.3638 10.2576C15.4617 11.1329 15.516 12.0431 15.516 13C15.516 13.9569 15.4617 14.8671 15.3638 15.7424C14.6787 16.2675 13.9609 16.7693 13.1997 17.2244ZM14.9614 18.1346C14.8527 18.6248 14.733 19.0916 14.5917 19.535C14.1349 19.4417 13.6782 19.325 13.2105 19.1849C13.4715 19.0449 13.7325 18.9048 13.9827 18.7531C14.3198 18.5548 14.646 18.3447 14.9614 18.1346ZM8.80619 19.1849C8.33857 19.325 7.87095 19.4417 7.42507 19.535C7.29457 19.0916 7.16408 18.6248 7.05533 18.1346C7.3707 18.3447 7.69695 18.5548 8.03407 18.7531C8.29507 18.9048 8.54519 19.0449 8.80619 19.1849ZM4.90209 14.2136C4.49972 13.8169 4.11909 13.4084 3.78197 13C4.11909 12.5916 4.49972 12.1831 4.90209 11.7864C4.88034 12.1831 4.86946 12.5916 4.86946 13C4.86946 13.4084 4.88034 13.8169 4.90209 14.2136ZM7.05533 7.86535C7.16408 7.37522 7.2837 6.90844 7.42507 6.46499C7.88182 6.55835 8.33857 6.67504 8.80619 6.81508C8.54519 6.95512 8.28419 7.09515 8.03407 7.24686C7.69695 7.44524 7.3707 7.6553 7.05533 7.86535ZM13.2105 6.81508C13.6782 6.67504 14.1458 6.55835 14.5917 6.46499C14.7222 6.90844 14.8527 7.37522 14.9614 7.86535C14.646 7.6553 14.3198 7.44524 13.9827 7.24686C13.7217 7.09515 13.4715 6.95512 13.2105 6.81508ZM17.1146 11.7747C17.5279 12.1831 17.8976 12.5916 18.2348 12.9883C17.8976 13.3968 17.517 13.8052 17.1146 14.202C17.1364 13.8052 17.1473 13.3968 17.1473 12.9883C17.1473 12.5799 17.1364 12.1715 17.1146 11.7747ZM11.0138 1.75045C12.0469 1.75045 13.1344 2.89408 13.9935 4.8079C13.0365 5.01795 12.036 5.3447 11.0138 5.76481C9.99156 5.3447 8.99107 5.02962 8.03407 4.8079C8.88232 2.89408 9.98068 1.75045 11.0138 1.75045ZM1.84623 7.5386C2.28123 6.69838 3.49922 6.20826 5.19571 6.20826C5.39146 6.20826 5.58721 6.21993 5.78296 6.2316C5.51108 7.17684 5.29359 8.1921 5.14134 9.27738C4.24959 10.0242 3.44485 10.7944 2.75972 11.5996C1.72661 9.95422 1.38948 8.43716 1.85711 7.5386H1.84623ZM5.18484 19.7917C3.49922 19.7917 2.28123 19.3016 1.83536 18.4614C1.35686 17.5278 1.70486 16.0341 2.74885 14.4004C3.43397 15.1939 4.22784 15.9758 5.13046 16.711C5.28271 17.7962 5.50021 18.8115 5.77208 19.7567C5.57633 19.7684 5.38059 19.7801 5.18484 19.7801V19.7917ZM11.0138 24.2496C9.98068 24.2496 8.89319 23.1059 8.03407 21.1921C8.99107 20.982 9.99156 20.6553 11.0138 20.2352C12.036 20.6553 13.0365 20.9704 13.9935 21.1921C13.1453 23.1059 12.0469 24.2496 11.0138 24.2496ZM20.1705 18.4614C19.7355 19.3016 18.5175 19.7917 16.821 19.7917C16.6253 19.7917 16.4295 19.7801 16.2338 19.7684C16.5056 18.8232 16.7231 17.8079 16.8754 16.7226C17.7671 15.9758 18.5719 15.2056 19.257 14.412C20.2901 16.0575 20.649 17.5395 20.1705 18.4731V18.4614ZM11.0138 9.79084L11.1443 10.9228C11.2531 11.9381 12.0143 12.7433 12.9713 12.86L14.0479 13L12.9713 13.14C12.0143 13.2567 11.2531 14.0619 11.1443 15.0772L11.0138 16.2092L10.8833 15.0772C10.7746 14.0619 10.0133 13.2567 9.05631 13.14L7.9797 13L9.05631 12.86C10.0133 12.7433 10.7746 11.9381 10.8833 10.9228L11.0138 9.79084Z" fill="currentColor"/>
</svg>
