<svg preserveAspectRatio="none" width="100%" height="100%" overflow="visible" style="display: block;" viewBox="0 0 13.3333 16.25" fill="none" xmlns="http://www.w3.org/2000/svg">
<path id="Vector" d="M6.66667 16.25C7.58333 16.25 8.33333 15.5 8.33333 14.5833H5C5 15.5 5.75 16.25 6.66667 16.25ZM11.6667 11.25V7.08333C11.6667 4.525 10.3083 2.38333 7.91667 1.81667V1.25C7.91667 0.558333 7.35833 0 6.66667 0C5.975 0 5.41667 0.558333 5.41667 1.25V1.81667C3.03333 2.38333 1.66667 4.51667 1.66667 7.08333V11.25L0 12.9167V13.75H13.3333V12.9167L11.6667 11.25ZM10 12.0833H3.33333V7.08333C3.33333 5.01667 4.59167 3.33333 6.66667 3.33333C8.74167 3.33333 10 5.01667 10 7.08333V12.0833Z" fill="currentColor"/>
</svg>
