<svg preserveAspectRatio="none" width="100%" height="100%" overflow="visible" style="display: block;" viewBox="0 0 16.6668 16.6333" fill="none" xmlns="http://www.w3.org/2000/svg">
<g id="Vector">
<path d="M10.1404 9.75833L11.3071 7.74167C11.3821 7.61667 11.3488 7.45833 11.2404 7.36667L10.0071 6.4C10.0321 6.21667 10.0488 6.025 10.0488 5.83333C10.0488 5.64167 10.0321 5.45 10.0071 5.25833L11.2404 4.29167C11.3488 4.2 11.3821 4.04167 11.3071 3.91667L10.1404 1.9C10.0654 1.775 9.91545 1.725 9.78212 1.775L8.33212 2.35833C8.03212 2.125 7.70712 1.93333 7.34878 1.78333L7.13212 0.241667C7.10712 0.108333 6.98212 0 6.84045 0H4.50712C4.36545 0 4.24045 0.108333 4.21545 0.25L3.99878 1.79167C3.64878 1.94167 3.31545 2.13333 3.01545 2.36667L1.56545 1.78333C1.43212 1.73333 1.28212 1.78333 1.20712 1.90833L0.0404487 3.925C-0.0345513 4.05 -0.0012178 4.20833 0.107116 4.3L1.34045 5.26667C1.31545 5.45 1.29878 5.64167 1.29878 5.83333C1.29878 6.025 1.31545 6.21667 1.34045 6.40833L0.107116 7.375C-0.0012178 7.46667 -0.0345513 7.625 0.0404487 7.75L1.20712 9.76667C1.28212 9.89167 1.43212 9.94167 1.56545 9.89167L3.01545 9.30833C3.31545 9.54167 3.64045 9.73333 3.99878 9.88333L4.21545 11.425C4.24045 11.5583 4.36545 11.6667 4.50712 11.6667H6.84045C6.98212 11.6667 7.10712 11.5583 7.13212 11.4167L7.34878 9.875C7.69878 9.725 8.03212 9.53333 8.33212 9.3L9.78212 9.88333C9.91545 9.93333 10.0654 9.88333 10.1404 9.75833ZM5.67378 7.5C4.75712 7.5 4.00712 6.75 4.00712 5.83333C4.00712 4.91667 4.75712 4.16667 5.67378 4.16667C6.59045 4.16667 7.34045 4.91667 7.34045 5.83333C7.34045 6.75 6.59045 7.5 5.67378 7.5Z" fill="currentColor"/>
<path d="M16.5988 13.8917L15.7988 13.275C15.8154 13.1583 15.8321 13.0333 15.8321 12.9083C15.8321 12.7833 15.8238 12.6583 15.7988 12.5417L16.5904 11.925C16.6571 11.8667 16.6821 11.7667 16.6321 11.6833L15.8821 10.3917C15.8404 10.3083 15.7405 10.2833 15.6488 10.3083L14.7238 10.6833C14.5321 10.5333 14.3238 10.4083 14.0904 10.3167L13.9488 9.33333C13.9404 9.23333 13.8571 9.16667 13.7738 9.16667H12.2821C12.1904 9.16667 12.1071 9.23333 12.0988 9.325L11.9571 10.3083C11.7321 10.4083 11.5154 10.525 11.3238 10.675L10.3988 10.3C10.3154 10.2667 10.2154 10.3 10.1654 10.3833L9.41545 11.675C9.37378 11.7583 9.38212 11.8583 9.45712 11.9167L10.2488 12.5333C10.2321 12.65 10.2238 12.775 10.2238 12.9C10.2238 13.025 10.2321 13.15 10.2488 13.2667L9.45712 13.8833C9.39045 13.9417 9.36545 14.0417 9.41545 14.125L10.1654 15.4167C10.2071 15.5 10.3071 15.525 10.3988 15.5L11.3238 15.125C11.5154 15.275 11.7238 15.4 11.9571 15.4917L12.0988 16.475C12.1154 16.5667 12.1904 16.6333 12.2821 16.6333H13.7738C13.8655 16.6333 13.9488 16.5667 13.9571 16.475L14.0988 15.4917C14.3238 15.3917 14.5405 15.275 14.7238 15.125L15.6571 15.5C15.7405 15.5333 15.8404 15.5 15.8904 15.4167L16.6404 14.125C16.6904 14.05 16.6654 13.95 16.5988 13.8917ZM13.0238 14.025C12.4071 14.025 11.8988 13.525 11.8988 12.9C11.8988 12.275 12.3988 11.775 13.0238 11.775C13.6488 11.775 14.1488 12.275 14.1488 12.9C14.1488 13.525 13.6404 14.025 13.0238 14.025Z" fill="currentColor"/>
</g>
</svg>
