<svg preserveAspectRatio="none" width="100%" height="100%" overflow="visible" style="display: block;" viewBox="0 0 16.6667 16.6667" fill="none" xmlns="http://www.w3.org/2000/svg">
<path id="Vector" d="M8.325 0C3.725 0 0 3.73333 0 8.33333C0 12.9333 3.725 16.6667 8.325 16.6667C12.9333 16.6667 16.6667 12.9333 16.6667 8.33333C16.6667 3.73333 12.9333 0 8.325 0ZM14.1 5H11.6417C11.375 3.95833 10.9917 2.95833 10.4917 2.03333C12.025 2.55833 13.3 3.625 14.1 5ZM8.33333 1.7C9.025 2.7 9.56667 3.80833 9.925 5H6.74167C7.1 3.80833 7.64167 2.7 8.33333 1.7ZM1.88333 10C1.75 9.46667 1.66667 8.90833 1.66667 8.33333C1.66667 7.75833 1.75 7.2 1.88333 6.66667H4.7C4.63333 7.21667 4.58333 7.76667 4.58333 8.33333C4.58333 8.9 4.63333 9.45 4.7 10H1.88333ZM2.56667 11.6667H5.025C5.29167 12.7083 5.675 13.7083 6.175 14.6333C4.64167 14.1083 3.36667 13.05 2.56667 11.6667V11.6667ZM5.025 5H2.56667C3.36667 3.61667 4.64167 2.55833 6.175 2.03333C5.675 2.95833 5.29167 3.95833 5.025 5V5ZM8.33333 14.9667C7.64167 13.9667 7.1 12.8583 6.74167 11.6667H9.925C9.56667 12.8583 9.025 13.9667 8.33333 14.9667ZM10.2833 10H6.38333C6.30833 9.45 6.25 8.9 6.25 8.33333C6.25 7.76667 6.30833 7.20833 6.38333 6.66667H10.2833C10.3583 7.20833 10.4167 7.76667 10.4167 8.33333C10.4167 8.9 10.3583 9.45 10.2833 10ZM10.4917 14.6333C10.9917 13.7083 11.375 12.7083 11.6417 11.6667H14.1C13.3 13.0417 12.025 14.1083 10.4917 14.6333V14.6333ZM11.9667 10C12.0333 9.45 12.0833 8.9 12.0833 8.33333C12.0833 7.76667 12.0333 7.21667 11.9667 6.66667H14.7833C14.9167 7.2 15 7.75833 15 8.33333C15 8.90833 14.9167 9.46667 14.7833 10H11.9667Z" fill="currentColor"/>
</svg>
