<svg xmlns="http://www.w3.org/2000/svg" width="560" height="230" viewBox="0 0 560 230">
  <defs>
    <linearGradient id="bg3" x1="0" y1="0" x2="1" y2="1">
      <stop offset="0%" stop-color="#0A2818"/>
      <stop offset="50%" stop-color="#0F3D28"/>
      <stop offset="100%" stop-color="#1A5A3A"/>
    </linearGradient>
  </defs>
  <rect width="560" height="230" fill="url(#bg3)"/>
  <!-- Rising chart lines -->
  <polyline points="60,180 120,160 180,170 240,130 300,100 360,110 420,70 480,50 500,55" fill="none" stroke="rgba(26,186,127,0.4)" stroke-width="2" stroke-linecap="round" stroke-linejoin="round"/>
  <polyline points="60,190 120,180 180,185 240,155 300,140 360,145 420,120 480,100 500,105" fill="none" stroke="rgba(26,186,127,0.2)" stroke-width="1.5" stroke-dasharray="4,4"/>
  <!-- Glow area under main line -->
  <polygon points="60,180 120,160 180,170 240,130 300,100 360,110 420,70 480,50 500,55 500,230 60,230" fill="rgba(26,186,127,0.06)"/>
  <!-- Chart dots -->
  <circle cx="240" cy="130" r="4" fill="rgba(26,186,127,0.5)"/>
  <circle cx="420" cy="70" r="4" fill="rgba(26,186,127,0.6)"/>
  <circle cx="480" cy="50" r="5" fill="rgba(26,186,127,0.7)"/>
  <!-- Euro symbols -->
  <text x="380" y="55" font-family="sans-serif" font-size="16" fill="rgba(26,186,127,0.3)" font-weight="600">€</text>
  <text x="140" cy="75" font-family="sans-serif" font-size="12" fill="rgba(26,186,127,0.2)" font-weight="600">€</text>
  <text x="460" y="90" font-family="sans-serif" font-size="14" fill="rgba(26,186,127,0.25)" font-weight="600">€</text>
</svg>