<svg xmlns="http://www.w3.org/2000/svg" width="560" height="230" viewBox="0 0 560 230">
  <defs>
    <linearGradient id="bg2" x1="0" y1="0" x2="1" y2="1">
      <stop offset="0%" stop-color="#1A0A2E"/>
      <stop offset="50%" stop-color="#2D1B4E"/>
      <stop offset="100%" stop-color="#4A2E78"/>
    </linearGradient>
  </defs>
  <rect width="560" height="230" fill="url(#bg2)"/>
  <!-- Factory/gear elements -->
  <circle cx="280" cy="115" r="45" fill="none" stroke="rgba(237,94,166,0.25)" stroke-width="2"/>
  <circle cx="280" cy="115" r="30" fill="none" stroke="rgba(237,94,166,0.35)" stroke-width="1.5"/>
  <circle cx="280" cy="115" r="15" fill="none" stroke="rgba(237,94,166,0.45)" stroke-width="1.5"/>
  <circle cx="280" cy="115" r="4" fill="rgba(237,94,166,0.5)"/>
  <!-- Gear teeth -->
  <line x1="280" y1="65" x2="280" y2="75" stroke="rgba(237,94,166,0.3)" stroke-width="3" stroke-linecap="round"/>
  <line x1="280" y1="155" x2="280" y2="165" stroke="rgba(237,94,166,0.3)" stroke-width="3" stroke-linecap="round"/>
  <line x1="230" y1="115" x2="240" y2="115" stroke="rgba(237,94,166,0.3)" stroke-width="3" stroke-linecap="round"/>
  <line x1="320" y1="115" x2="330" y2="115" stroke="rgba(237,94,166,0.3)" stroke-width="3" stroke-linecap="round"/>
  <!-- Data flow lines -->
  <path d="M100 60 Q 140 90, 180 80 T 260 100" fill="none" stroke="rgba(237,94,166,0.15)" stroke-width="1.5"/>
  <path d="M300 130 Q 340 140, 380 120 T 460 140" fill="none" stroke="rgba(237,94,166,0.15)" stroke-width="1.5"/>
  <!-- Sparkle dots -->
  <circle cx="100" cy="60" r="3" fill="rgba(237,94,166,0.4)"/>
  <circle cx="460" cy="140" r="3" fill="rgba(237,94,166,0.4)"/>
  <circle cx="150" cy="170" r="2" fill="rgba(237,94,166,0.3)"/>
  <circle cx="400" cy="60" r="2" fill="rgba(237,94,166,0.3)"/>
  <circle cx="450" cy="80" r="2.5" fill="rgba(237,94,166,0.25)"/>
</svg>