<svg xmlns="http://www.w3.org/2000/svg" width="560" height="230" viewBox="0 0 560 230">
  <defs>
    <linearGradient id="bg1" x1="0" y1="0" x2="1" y2="1">
      <stop offset="0%" stop-color="#0F1B2D"/>
      <stop offset="50%" stop-color="#1A2E4A"/>
      <stop offset="100%" stop-color="#2E4E78"/>
    </linearGradient>
  </defs>
  <rect width="560" height="230" fill="url(#bg1)"/>
  <!-- Network nodes -->
  <circle cx="120" cy="80" r="4" fill="rgba(74,178,178,0.6)"/>
  <circle cx="200" cy="50" r="3" fill="rgba(74,178,178,0.4)"/>
  <circle cx="180" cy="130" r="5" fill="rgba(74,178,178,0.5)"/>
  <circle cx="300" cy="90" r="3" fill="rgba(74,178,178,0.3)"/>
  <circle cx="350" cy="60" r="4" fill="rgba(74,178,178,0.5)"/>
  <circle cx="420" cy="110" r="3" fill="rgba(74,178,178,0.4)"/>
  <circle cx="480" cy="70" r="5" fill="rgba(74,178,178,0.6)"/>
  <!-- Connection lines -->
  <line x1="120" y1="80" x2="200" y2="50" stroke="rgba(74,178,178,0.2)" stroke-width="1"/>
  <line x1="200" y1="50" x2="300" y2="90" stroke="rgba(74,178,178,0.15)" stroke-width="1"/>
  <line x1="180" y1="130" x2="300" y2="90" stroke="rgba(74,178,178,0.2)" stroke-width="1"/>
  <line x1="300" y1="90" x2="350" y2="60" stroke="rgba(74,178,178,0.15)" stroke-width="1"/>
  <line x1="350" y1="60" x2="480" y2="70" stroke="rgba(74,178,178,0.2)" stroke-width="1"/>
  <line x1="420" y1="110" x2="480" y2="70" stroke="rgba(74,178,178,0.15)" stroke-width="1"/>
  <!-- AI chip icon -->
  <rect x="240" y="85" width="80" height="60" rx="8" fill="none" stroke="rgba(74,178,178,0.3)" stroke-width="1.5"/>
  <circle cx="280" cy="115" r="12" fill="none" stroke="rgba(74,178,178,0.5)" stroke-width="1.5"/>
  <circle cx="280" cy="115" r="5" fill="rgba(74,178,178,0.4)"/>
  <!-- Chip pins -->
  <line x1="240" y1="100" x2="225" y2="100" stroke="rgba(74,178,178,0.3)" stroke-width="1.5"/>
  <line x1="240" y1="115" x2="225" y2="115" stroke="rgba(74,178,178,0.3)" stroke-width="1.5"/>
  <line x1="240" y1="130" x2="225" y2="130" stroke="rgba(74,178,178,0.3)" stroke-width="1.5"/>
  <line x1="320" y1="100" x2="335" y2="100" stroke="rgba(74,178,178,0.3)" stroke-width="1.5"/>
  <line x1="320" y1="115" x2="335" y2="115" stroke="rgba(74,178,178,0.3)" stroke-width="1.5"/>
  <line x1="320" y1="130" x2="335" y2="130" stroke="rgba(74,178,178,0.3)" stroke-width="1.5"/>
</svg>